<svg id="Capa_1" enable-background="new 0 0 512 512" height="512" viewBox="0 0 512 512" width="512" xmlns="http://www.w3.org/2000/svg"><g><path d="m377.893 429.751c-40.041 34.369-92.091 55.143-148.998 55.143h278.105c2.761 0 5-2.238 5-5v-45.143c0-2.762-2.239-5-5-5z" fill="#8c808a"/><path d="m228.895 27.105c-126.415 0-228.895 102.48-228.895 228.895s102.48 228.895 228.895 228.895 228.895-102.479 228.895-228.895-102.48-228.895-228.895-228.895zm-.002 49.456c27.613 0 50.003 22.39 50.003 50.003 0 1.548-.072 3.087-.217 4.604-2.323 25.455-23.721 45.399-49.786 45.399s-47.463-19.943-49.786-45.399c-.145-1.517-.217-3.055-.217-4.604 0-27.613 22.39-50.003 50.003-50.003zm-170.478 122.106c8.888-26.147 37.285-40.134 63.432-31.246 1.538.526 3.035 1.115 4.49 1.775 23.226 10.447 35.117 37.048 26.756 61.657-8.32 24.465-33.703 38.286-58.354 32.681-1.703-.382-3.396-.857-5.079-1.435-26.145-8.888-40.132-37.285-31.245-63.432zm127.701 184.732c-1.063 1.6-2.24 3.159-3.52 4.655-17.91 21.017-49.476 23.536-70.493 5.626s-23.535-49.476-5.626-70.493c1.208-1.425 2.488-2.757 3.809-4.016 18.322-17.249 47.092-18.312 66.684-1.61 19.52 16.631 23.082 45.028 9.146 65.838zm42.779-97.319c-16.613 0-30.08-13.467-30.08-30.08s13.467-30.08 30.08-30.08 30.08 13.467 30.08 30.08-13.468 30.08-30.08 30.08zm116.788 107.601c-21.017 17.91-52.573 15.391-70.493-5.626-1.28-1.497-2.457-3.055-3.52-4.655-13.936-20.8-10.374-49.208 9.156-65.837 19.592-16.702 48.351-15.639 66.674 1.61 1.321 1.259 2.601 2.591 3.809 4.016 17.909 21.016 15.39 52.582-5.626 70.492zm22.451-131.582c-1.693.578-3.386 1.053-5.089 1.435-24.64 5.595-50.044-8.217-58.354-32.681-8.361-24.609 3.53-51.21 26.756-61.657 1.456-.66 2.952-1.249 4.49-1.775 26.147-8.888 54.545 5.099 63.443 31.246 8.888 26.147-5.109 54.544-31.246 63.432z" fill="#ffc265"/><path d="m377.893 429.752c-40.041 34.369-92.091 55.143-148.998 55.143h101.37c29.761-13.2 56.466-32.029 78.766-55.143z" fill="#7b7179"/><g><g><path d="m228.895 457.024c-121.734 0-221.256-95.036-228.46-214.959-.278 4.611-.435 9.254-.435 13.935 0 126.415 102.48 228.895 228.895 228.895s228.895-102.479 228.895-228.895c0-4.681-.158-9.324-.435-13.935-7.205 119.923-106.726 214.959-228.46 214.959z" fill="#ffb541"/></g></g><g fill="#8c808a"><path d="m94.741 263.534c-.134-2.498-.206-5.007-.206-7.535 0-33.094 11.964-63.391 31.804-86.803 23.226 10.447 35.117 37.048 26.756 61.657-8.321 24.464-33.704 38.286-58.354 32.681z"/><path d="m186.116 383.399c-32.723-10.973-59.809-34.199-75.83-64.227 18.322-17.249 47.092-18.312 66.684-1.61 19.52 16.63 23.082 45.027 9.146 65.837z"/><path d="m228.893 176.566c-26.064 0-47.463-19.943-49.786-45.399 15.391-6.142 32.196-9.528 49.786-9.528s34.395 3.386 49.786 9.528c-2.323 25.456-23.722 45.399-49.786 45.399z"/><path d="m347.499 319.172c-16.021 30.028-43.107 53.254-75.83 64.227-13.936-20.8-10.374-49.208 9.156-65.837 19.593-16.702 48.352-15.639 66.674 1.61z"/></g><path d="m263.308 358.034c.421 8.843 3.179 17.631 8.362 25.366 32.723-10.973 59.809-34.199 75.83-64.227-3.784-3.562-8.017-6.423-12.519-8.59-17.803 22.872-42.839 39.832-71.673 47.451z" fill="#7b7179"/><path d="m122.808 310.581c-4.503 2.168-8.737 5.028-12.521 8.591 16.021 30.028 43.107 53.254 75.83 64.227 5.182-7.738 7.94-16.525 8.362-25.367-28.834-7.618-53.869-24.579-71.671-47.451z" fill="#7b7179"/><path d="m363.252 255.998c0 2.529-.072 5.037-.206 7.535-24.64 5.595-50.044-8.217-58.354-32.681-8.361-24.609 3.53-51.21 26.756-61.657 19.84 23.412 31.804 53.709 31.804 86.803z" fill="#8c808a"/></g></svg>